<svg fill="none" xmlns="http://www.w3.org/2000/svg" viewBox="0 0 140 140"><path d="M40.23 69.3a30.94 30.94 0 1 0 61.87 0 30.94 30.94 0 0 0-61.87 0Z" fill="#228E9D"/><path d="M38.71 107.12a2.99 2.99 0 0 0 3 3 2.99 2.99 0 0 0-3 2.98 2.99 2.99 0 0 0-2.99-2.99 2.99 2.99 0 0 0 3-2.99Z" fill="#ED8F27"/><path d="M40.23 115.97H37.2v-2.87c0-.81-.66-1.47-1.48-1.47h-2.86v-3.04h2.86c.82 0 1.48-.66 1.48-1.47v-2.86h3.03v2.86c0 .81.66 1.47 1.47 1.47v3.04c-.81 0-1.47.66-1.47 1.47v2.87Zm4.34-4.34H41.7v-3.04h2.87v3.04ZM122.15 79.9c0 1.11.9 2 2 2a2 2 0 0 0-2 2.01 2 2 0 0 0-2-2 2 2 0 0 0 2-2Z" fill="#ED8F27"/><path d="M123.16 85.83h-2.03V83.9a.99.99 0 0 0-.98-.99h-1.92V80.9h1.92a.98.98 0 0 0 .98-.98v-1.92h2.03v1.92c0 .54.45.98.99.98v2.03a.99.99 0 0 0-.99.99v1.92Zm2.9-2.9h-1.91v-2.04h1.92v2.03ZM109.22 86.22a2.99 2.99 0 0 0 3 2.99 2.99 2.99 0 0 0-3 2.99 2.99 2.99 0 0 0-2.98-2.99 2.99 2.99 0 0 0 2.98-2.99Z" fill="#ED8F27"/><path d="M110.74 95.06h-3.03V92.2c0-.81-.66-1.47-1.47-1.47h-2.87v-3.04h2.86c.82 0 1.48-.66 1.48-1.47v-2.86h3.03v2.86c0 .81.66 1.47 1.47 1.47v3.04c-.8 0-1.47.66-1.47 1.47v2.86Zm4.34-4.33h-2.87v-3.04h2.87v3.04ZM98.05 106.55c0 1.13.91 2.04 2.04 2.04h1.95-1.95c-1.13 0-2.04.92-2.04 2.05 0-1.13-.92-2.05-2.05-2.05 1.13 0 2.05-.9 2.05-2.04Z" fill="#ED8F27"/><path d="M99.08 112.6h-2.07v-1.96a1 1 0 0 0-1-1.01h-1.96v-2.07H96a1 1 0 0 0 1.01-1v-1.96h2.07v1.95a1 1 0 0 0 1 1v2.08a1 1 0 0 0-1 1v1.96Zm2.96-2.97h-1.95v-2.07h1.95v2.07ZM20.45 55.86a2.99 2.99 0 0 0 2.99 2.99 2.99 2.99 0 0 0-3 2.99 2.99 2.99 0 0 0-2.98-3 2.99 2.99 0 0 0 2.99-2.98Z" fill="#ED8F27"/><path d="M21.97 64.7h-3.04v-2.86c0-.81-.66-1.47-1.47-1.47h-2.87v-3.04h2.87c.81 0 1.47-.66 1.47-1.47v-2.87h3.04v2.87c0 .81.66 1.47 1.47 1.47v3.04c-.81 0-1.47.66-1.47 1.47v2.86Zm4.33-4.33h-2.86v-3.04h2.86v3.04Z" fill="#ED8F27"/><path d="M81.68 100.97a33.57 33.57 0 0 1-42.4-21.25 33.57 33.57 0 0 1 21.25-42.4 33.57 33.57 0 0 1 42.4 21.25 33.58 33.58 0 0 1-21.25 42.4ZM61.5 40.2a30.54 30.54 0 0 0-19.33 38.56A30.54 30.54 0 0 0 80.73 98.1a30.54 30.54 0 0 0 19.32-38.57A30.54 30.54 0 0 0 61.5 40.2Z" fill="#300604"/><path d="M41.4 96.68c-8.8 2.92-15.76 3.72-17.75.33-2.85-4.85 6.8-14.02 15.4-20.85l1.89 2.38C27.17 89.48 25.68 94.47 26.26 95.47c1.89 3.21 22.1-2.39 49.47-18.46 12.24-7.19 23.19-14.89 30.81-21.67 8.71-7.75 9.97-11.59 9.41-12.53-.59-1-5.73-2.14-22.2 4.67l-1.16-2.8c10.27-4.25 23.11-8.29 25.98-3.4 1.93 3.28-1.35 8.62-10 16.32-7.78 6.92-18.9 14.74-31.3 22.03C66.6 85.88 52.52 92.98 41.4 96.68Z" fill="#300604"/><path d="M27.55 45.52a4.97 4.97 0 1 0 9.94 0 4.97 4.97 0 0 0-9.94 0Z" fill="#B12800"/><path d="M32.52 52a6.5 6.5 0 1 1 .01-12.98A6.5 6.5 0 0 1 32.52 52Zm0-9.93a3.46 3.46 0 1 0 0 6.91 3.46 3.46 0 0 0 0-6.91Z" fill="#300604"/><path d="M87.9 41.89a12.02 12.02 0 1 0-22.66-4.22c8.01-1.5 16.06.15 22.67 4.22Z" fill="#FCE3C3"/><path d="m88.51 44.04-1.4-.86a30.4 30.4 0 0 0-21.58-4.02l-1.62.3-.17-1.63a13.61 13.61 0 0 1 9.2-14.25 13.55 13.55 0 0 1 16.32 19l-.75 1.46Zm-21.8-8.14c7.06-.94 14.2.4 20.47 3.81a10.51 10.51 0 0 0-13.29-13.25 10.57 10.57 0 0 0-7.17 9.44Z" fill="#300604"/><path d="M55.88 97.3a11.19 11.19 0 1 0 19.83 3.53 31.94 31.94 0 0 1-19.83-3.53Z" fill="#ED8F27"/><path d="M68.96 115.9a12.72 12.72 0 0 1-16.07-8.05 12.75 12.75 0 0 1 1.76-11.44l.78-1.08 1.17.63a30.24 30.24 0 0 0 18.9 3.36l1.31-.2.36 1.3a12.68 12.68 0 0 1-8.21 15.48ZM56.43 99.29A9.69 9.69 0 0 0 68 113.02a9.65 9.65 0 0 0 6.5-10.52 33.17 33.17 0 0 1-18.08-3.21ZM89.08 54.5a19.33 19.33 0 0 0-7.22-6.78 20.04 20.04 0 0 0-9.46-1.96l-.26-3c.23-.01 5.66-.44 11.07 2.27a22.1 22.1 0 0 1 8.48 7.98l-2.61 1.49Zm3.81.46 1.63 3.32-2.7 1.32-1.63-3.32 2.7-1.32Z" fill="#300604"/></svg>