<svg fill="none" xmlns="http://www.w3.org/2000/svg" viewBox="0 0 95 41"><path d="M.7 31V.45h3.7v27.27h14.2V31H.7Zm32.45.48c-2.06 0-3.88-.5-5.44-1.48a10.03 10.03 0 0 1-3.64-4.13 13.98 13.98 0 0 1-1.3-6.2c0-2.4.44-4.47 1.3-6.25a10.01 10.01 0 0 1 3.64-4.15 9.99 9.99 0 0 1 5.44-1.48c2.07 0 3.88.5 5.43 1.48a9.88 9.88 0 0 1 3.64 4.15 14 14 0 0 1 1.31 6.24c0 2.37-.43 4.44-1.3 6.2A9.9 9.9 0 0 1 38.57 30a9.91 9.91 0 0 1-5.43 1.48Zm0-3.16c1.57 0 2.87-.4 3.88-1.21a7.12 7.12 0 0 0 2.25-3.18c.5-1.31.73-2.73.73-4.27 0-1.53-.24-2.95-.73-4.28a7.21 7.21 0 0 0-2.25-3.2 6 6 0 0 0-3.88-1.23 6 6 0 0 0-3.87 1.23 7.22 7.22 0 0 0-2.26 3.2 12.29 12.29 0 0 0-.73 4.28c0 1.54.25 2.96.73 4.27a7.12 7.12 0 0 0 2.26 3.18c1.01.8 2.3 1.2 3.87 1.2Zm25 11.75c-1.7 0-3.16-.22-4.38-.66a9.3 9.3 0 0 1-4.98-3.94l2.8-1.96c.32.41.72.9 1.21 1.43a6.12 6.12 0 0 0 2 1.41c.85.41 1.97.62 3.35.62 1.85 0 3.38-.45 4.58-1.35 1.2-.9 1.8-2.3 1.8-4.2v-4.66h-.29c-.26.42-.63.94-1.1 1.56a6.26 6.26 0 0 1-2.03 1.62c-.88.47-2.06.7-3.55.7a9.56 9.56 0 0 1-4.98-1.31 9.2 9.2 0 0 1-3.48-3.82 13.36 13.36 0 0 1-1.27-6.08c0-2.35.42-4.4 1.24-6.13a9.1 9.1 0 0 1 8.55-5.5c1.49 0 2.67.24 3.55.74a6.21 6.21 0 0 1 2.03 1.67c.47.62.84 1.12 1.1 1.52h.36V8.09h3.4v23.57c0 1.96-.45 3.57-1.34 4.8a7.64 7.64 0 0 1-3.58 2.73c-1.5.58-3.16.88-4.99.88Zm-.12-12.59c1.42 0 2.61-.32 3.58-.97a6.03 6.03 0 0 0 2.23-2.79c.5-1.21.76-2.66.76-4.35 0-1.65-.25-3.11-.75-4.37a6.56 6.56 0 0 0-2.2-2.97 5.93 5.93 0 0 0-3.62-1.08c-1.49 0-2.73.38-3.72 1.14a6.9 6.9 0 0 0-2.23 3.04 11.76 11.76 0 0 0-.73 4.24c0 1.59.25 3 .75 4.22a6.47 6.47 0 0 0 2.24 2.86c.99.69 2.22 1.03 3.7 1.03Zm25.78 4c-2.07 0-3.89-.5-5.45-1.48a10.03 10.03 0 0 1-3.64-4.13 13.98 13.98 0 0 1-1.3-6.2c0-2.4.44-4.47 1.3-6.25a10.01 10.01 0 0 1 3.64-4.15 9.99 9.99 0 0 1 5.45-1.48c2.07 0 3.88.5 5.43 1.48a9.88 9.88 0 0 1 3.64 4.15 14 14 0 0 1 1.3 6.24c0 2.37-.43 4.44-1.3 6.2A9.9 9.9 0 0 1 89.24 30a9.91 9.91 0 0 1-5.43 1.48Zm0-3.16c1.57 0 2.86-.4 3.88-1.21a7.12 7.12 0 0 0 2.25-3.18c.48-1.31.73-2.73.73-4.27 0-1.53-.25-2.95-.73-4.28a7.21 7.21 0 0 0-2.25-3.2 6 6 0 0 0-3.88-1.23 6 6 0 0 0-3.88 1.23 7.22 7.22 0 0 0-2.25 3.2 12.29 12.29 0 0 0-.73 4.28c0 1.54.24 2.96.73 4.27a7.12 7.12 0 0 0 2.25 3.18c1.01.8 2.3 1.2 3.88 1.2Z" fill="#F0DFDF"/></svg>
