<svg fill="none" xmlns="http://www.w3.org/2000/svg" viewBox="0 0 140 140"><path d="M114.54 47.07v61.18H38.72V26.8h53.96l21.86 20.28Z" fill="#FCE3C3"/><path d="M114.54 109.9H38.72l-1.64-1.65V26.8l1.64-1.65h53.96l1.12.44 21.85 20.28.53 1.2v61.2l-1.64 1.63Zm-74.18-3.29h72.54V47.78L92.04 28.43H40.36v78.18Z" fill="#300604"/><path d="M92.68 26.79v20.28h21.86L92.68 26.79Z" fill="#ED8F27"/><path d="M114.54 48.7H92.68l-1.64-1.63V26.79l2.76-1.2 21.85 20.27-1.11 2.85Zm-20.22-3.27h16.04L94.32 30.55v14.88ZM87.3 61.98h18.66v4.2H87.29v-4.2Zm0 9.28h18.66v4.19H87.29v-4.2Z" fill="#300604"/><path d="M19 58.14h48.21v61.23H19V58.14Z" fill="#B12800"/><path d="M67.21 121.01H19l-1.64-1.64V58.14L19 56.5h48.21l1.64 1.64v61.23l-1.64 1.64Zm-46.57-3.28h44.93V59.78H20.64v57.95Z" fill="#300604"/><path d="M25.6 65.52h34.67v7.83H25.59v-7.83Z" fill="#300604"/><path d="M43.41 95.32h16.4v18h-16.4v-18Z" fill="#228E9D"/><path d="M25.92 78.1h16.4v17.98h-16.4V78.09Z" fill="#FCE3C3"/><path d="M25.92 96.02h16.4V114h-16.4V96.02Zm17.5-17.47H59.8v17.98h-16.4V78.55Z" fill="#ED8F27"/><path d="M67.21 119.37H19V58.14h48.21v61.23ZM21.1 60.24v57.03h44.02V60.24H21.1Z" fill="#300604"/><path d="M61.32 113.82H24.89V77.4h36.43v36.43Zm-34.33-2.1h32.23V79.5H27v32.23Zm34.33-37.18H24.89v-9.6h36.43v9.6Zm-34.33-2.1h32.23v-5.4H27v5.4Z" fill="#300604"/><path d="M25.94 94.56h34.33v2.1H25.94v-2.1Z" fill="#300604"/><path d="M42.06 78.44h2.1v34.33h-2.1V78.44Zm-12.46 7.8h9.05v2.1H29.6v-2.1Z" fill="#300604"/><path d="M33.07 82.76h2.1v9.05h-2.1v-9.05Zm-1.4 17.84 6.4 6.4-1.48 1.49-6.4-6.4 1.48-1.48Z" fill="#300604"/><path d="m36.58 100.6 1.49 1.48-6.4 6.4-1.49-1.48 6.4-6.4Zm10.7-14.36h9.05v2.1h-9.05v-2.1Zm0 14.9h9.05v2.1h-9.05v-2.1Zm0 4.27h9.05v2.1h-9.05v-2.1ZM91.35 90.9h5.44v4.06h-5.44V90.9ZM102.09 90.9h3.2v4.06h-3.2V90.9ZM83.84 90.9h3.2v4.06h-3.2V90.9ZM48.75 37.94H63.1V42H48.75v-4.07ZM66.96 37.94h4.83V42h-4.83v-4.07Z" fill="#300604"/></svg>